<svg width="41" height="32" viewBox="0 0 41 32" fill="none" xmlns="http://www.w3.org/2000/svg">
<path fill-rule="evenodd" clip-rule="evenodd" d="M9.88168 14.4C14.1799 11.6044 16.995 6.7831 17.1983 1.28C17.2061 1.06766 17.2101 0.854298 17.2101 0.640001L17.2096 0.640001C17.1661 6.85708 13.8471 12.2761 8.80627 15.0322L8.82073 15.0322C9.18351 14.8349 9.53736 14.624 9.88168 14.4ZM39.8548 15.04L39.8548 16.96L39.8549 16.96L39.8549 15.04L39.8548 15.04ZM8.91274 16.9676L8.89839 16.9676C14.0415 19.721 17.5509 25.1286 17.5967 31.36L17.5972 31.36C17.5972 31.1457 17.593 30.9323 17.5847 30.72C17.3704 25.2055 14.3987 20.3924 9.99863 17.6C9.64563 17.376 9.28344 17.165 8.91274 16.9676ZM0.500668 15.0393L0.500672 16.9576L0.500001 17.6L1.40507 17.6C8.94568 17.737 15.0166 23.845 15.0166 31.36L15.0166 32L18.2423 32L18.2423 31.36C18.2423 25.6955 15.4436 20.6802 11.1451 17.6L40.5 17.6L40.5 14.4L11.0089 14.4C15.2105 11.3107 17.8552 6.28225 17.8552 0.640001L17.8552 9.89835e-07L14.6295 1.13084e-06L14.6295 0.640001C14.6295 8.29336 8.75428 14.3976 1.14582 14.3976L0.50134 14.3976L0.500668 15.0393Z" fill="white"/>
</svg>
