<svg width="49" height="60" viewBox="0 0 49 60" fill="none" xmlns="http://www.w3.org/2000/svg">
<path fill-rule="evenodd" clip-rule="evenodd" d="M21.7931 45.9275C17.5998 39.4802 10.3678 35.2575 2.11312 34.9526C1.7946 34.9408 1.47456 34.9349 1.15312 34.9349V34.9355C10.4788 35.0007 18.6074 39.9793 22.7415 47.5406V47.5192C22.4456 46.9749 22.1291 46.4441 21.7931 45.9275ZM25.6447 47.3806V47.4024C29.7747 39.6877 37.886 34.4237 47.2331 34.3549V34.3543C46.9116 34.3543 46.5916 34.3605 46.2731 34.3729C38.0013 34.6943 30.7818 39.152 26.5931 45.7521C26.2571 46.2815 25.9407 46.8246 25.6447 47.3806ZM22.7521 59.999L25.6296 59.999L26.5931 60V58.6424C26.7986 47.3315 35.9605 38.2252 47.2331 38.2252H48.1931V33.3865H47.2331C38.7364 33.3865 31.2134 37.5847 26.5931 44.0323V0H21.7931V44.2367C17.1591 37.9342 9.61648 33.9672 1.15312 33.9672H0.193115V38.8058H1.15312C12.6332 38.8058 21.7896 47.6186 21.7896 59.0313V59.998L22.7521 59.999Z" fill="black"/>
</svg>
