<svg width="747" height="395" viewBox="0 0 747 395" fill="none" xmlns="http://www.w3.org/2000/svg">
<g opacity="0.5">
<g clip-path="url(#clip0_62_22216)">
<rect width="411" height="66" transform="translate(548.833 0.0344238) rotate(61.2404)" fill="#444444"/>
<path d="M522.986 50.6252L547.778 37.0181L553.567 47.5652C556.612 53.1127 555.453 58.4717 550.214 61.3472C546.79 63.2266 543.494 62.9858 540.761 61.0102L534.262 71.1716L530.372 64.083L536.219 55.1704L534.809 52.6021L526.556 57.1315L522.986 50.6252ZM539.912 49.8017L541.302 52.3358C542.656 54.8013 544.317 55.7167 546.474 54.5327C548.666 53.3298 548.888 51.3808 547.535 48.9152L546.144 46.3812L539.912 49.8017ZM539.38 81.3081C536.128 75.3839 537.732 69.7806 543.725 66.4916C549.478 63.3341 555.324 64.8933 558.481 70.6463C561.507 76.1595 559.957 81.7783 553.998 85.0485L552.457 85.8942L545.767 73.7034L545.527 73.8349C543.609 74.8874 542.916 76.872 544.044 78.9266C544.814 80.3306 546.051 81.1224 547.338 80.9507L550.589 86.8749C546.397 88.3292 542.161 86.3762 539.38 81.3081ZM549.396 71.7112L552.798 77.9093C554.457 76.9542 554.908 75.0139 553.968 73.3017C553.019 71.5724 551.085 70.851 549.396 71.7112ZM550.469 88.5235C554.579 86.2682 557.827 88.4513 560.152 92.1209L562.711 96.3759L564.217 95.5489C565.245 94.9851 565.357 93.8095 564.662 92.5425C563.929 91.207 562.877 90.6704 561.618 91.1381L558.329 85.1454C561.851 83.5245 566.197 84.7041 569.204 90.1831C572.042 95.354 571.331 100.066 567.735 102.04L555.031 109.013L551.704 102.951L554.307 101.523L554.231 101.386C551.61 101.399 549.704 100.039 548.351 97.573C546.397 94.0116 546.771 90.5533 550.469 88.5235ZM554.191 94.4122C553.096 95.0136 552.983 96.1892 553.641 97.3877C554.524 98.9972 556.379 99.9401 558.106 98.9474L559.099 98.4023C558.725 97.7611 557.717 96.0865 557.162 95.2774C556.386 94.1882 555.185 93.8671 554.191 94.4122ZM560.975 120.656C557.686 114.663 559.582 108.944 565.301 105.805C571.02 102.666 576.863 104.138 580.152 110.131C583.103 115.507 581.9 120.623 577.144 123.323L573.836 117.296C575.694 116.053 576.173 114.409 575.346 112.902C574.331 111.053 572.113 110.666 568.997 112.377C565.847 114.106 564.948 116.203 565.963 118.052C566.79 119.559 568.434 120.038 570.514 119.119L573.822 125.146C568.903 127.712 563.964 126.101 560.975 120.656ZM591.932 132.162L587.24 134.737L585.455 131.484L577.51 135.844C576.62 136.333 576.522 136.966 576.976 137.875C577.205 138.373 577.8 139.295 578.263 139.976L573.434 142.626C572.993 142.066 572.311 141.148 571.503 139.676C569.022 135.155 569.419 131.819 573.307 129.729L581.903 125.012L580.587 122.615L585.278 120.04L586.594 122.437L591.046 119.994L594.598 126.466L590.146 128.909L591.932 132.162Z" fill="black"/>
</g>
<rect width="432" height="30" transform="translate(165.739 276)" fill="#444444"/>
<path d="M187.047 298V283.859H192.36C195.602 283.859 197.34 285.832 197.34 288.547C197.34 291.262 195.582 293.215 192.321 293.215H189.586V298H187.047ZM189.586 291.125H191.969C193.883 291.125 194.743 290.051 194.743 288.547C194.743 287.023 193.883 285.988 191.969 285.988H189.586V291.125ZM201.374 291.789V298H198.874V283.859H201.315V289.191H201.452C201.94 288 202.956 287.258 204.596 287.258C206.803 287.258 208.249 288.684 208.249 291.242V298H205.768V291.633C205.768 290.188 204.987 289.367 203.678 289.367C202.331 289.367 201.374 290.246 201.374 291.789ZM214.841 298.215C211.755 298.215 209.763 296.027 209.763 292.746C209.763 289.445 211.755 287.258 214.841 287.258C217.946 287.258 219.919 289.445 219.919 292.746C219.919 296.027 217.946 298.215 214.841 298.215ZM214.861 296.223C216.56 296.223 217.4 294.68 217.4 292.727C217.4 290.793 216.56 289.23 214.861 289.23C213.122 289.23 212.282 290.793 212.282 292.727C212.282 294.68 213.122 296.223 214.861 296.223ZM226.746 287.395V289.309H224.656V294.816C224.656 295.832 225.164 296.047 225.789 296.047C226.082 296.047 226.57 296.027 226.882 296.008V298.039C226.589 298.098 226.101 298.137 225.476 298.137C223.601 298.137 222.156 297.219 222.175 295.227V289.309H220.652V287.395H222.175V284.855H224.656V287.395H226.746ZM232.771 298.215C229.686 298.215 227.693 296.027 227.693 292.746C227.693 289.445 229.686 287.258 232.771 287.258C235.877 287.258 237.85 289.445 237.85 292.746C237.85 296.027 235.877 298.215 232.771 298.215ZM232.791 296.223C234.49 296.223 235.33 294.68 235.33 292.727C235.33 290.793 234.49 289.23 232.791 289.23C231.053 289.23 230.213 290.793 230.213 292.727C230.213 294.68 231.053 296.223 232.791 296.223ZM245.399 290.422C245.243 289.621 244.578 289.113 243.524 289.113C242.45 289.113 241.668 289.641 241.688 290.363C241.668 290.91 242.118 291.32 243.192 291.574L244.989 291.945C247 292.395 247.957 293.312 247.977 294.836C247.957 296.828 246.219 298.215 243.446 298.215C240.75 298.215 239.149 297.004 238.895 294.973H241.434C241.59 295.871 242.293 296.32 243.446 296.32C244.637 296.32 245.438 295.832 245.438 295.051C245.438 294.445 244.95 294.055 243.895 293.82L242.196 293.449C240.223 293.059 239.207 292.023 239.207 290.5C239.207 288.547 240.887 287.258 243.485 287.258C246.024 287.258 247.586 288.488 247.762 290.422H245.399ZM251.971 291.789V298H249.471V283.859H251.913V289.191H252.05C252.538 288 253.553 287.258 255.194 287.258C257.401 287.258 258.846 288.684 258.846 291.242V298H256.366V291.633C256.366 290.188 255.585 289.367 254.276 289.367C252.928 289.367 251.971 290.246 251.971 291.789ZM265.439 298.215C262.353 298.215 260.361 296.027 260.361 292.746C260.361 289.445 262.353 287.258 265.439 287.258C268.544 287.258 270.517 289.445 270.517 292.746C270.517 296.027 268.544 298.215 265.439 298.215ZM265.458 296.223C267.157 296.223 267.997 294.68 267.997 292.727C267.997 290.793 267.157 289.23 265.458 289.23C263.72 289.23 262.88 290.793 262.88 292.727C262.88 294.68 263.72 296.223 265.458 296.223ZM272.05 301.984V287.395H274.492V289.133H274.648C275.039 288.371 275.82 287.258 277.695 287.258C280.136 287.258 282.07 289.172 282.07 292.707C282.07 296.203 280.195 298.195 277.695 298.195C275.859 298.195 275.039 297.102 274.648 296.32H274.55V301.984H272.05ZM274.492 292.688C274.492 294.758 275.39 296.145 277.011 296.145C278.652 296.145 279.531 294.699 279.531 292.688C279.531 290.715 278.671 289.289 277.011 289.289C275.39 289.289 274.492 290.637 274.492 292.688ZM292.207 298.195C289.317 298.195 287.539 296.496 287.539 294.25C287.539 292.59 288.623 291.555 290.196 290.461C289.375 289.465 288.75 288.439 288.75 287.18C288.75 285.168 290.215 283.684 292.442 283.684C294.668 283.684 296.036 285.168 296.036 286.887C296.036 288.234 295.332 289.25 294.161 290.109L293.262 290.773L295.86 293.801C296.221 293.107 296.446 292.277 296.446 291.34H298.594C298.594 293.283 298.057 294.66 297.364 295.578L299.434 298H296.739L295.84 296.965C294.825 297.805 293.457 298.195 292.207 298.195ZM289.981 294.133C289.981 295.266 290.879 296.164 292.286 296.164C293.037 296.164 293.809 295.9 294.493 295.402L291.543 292.023L291.309 292.199C290.352 292.902 289.981 293.645 289.981 294.133ZM290.957 287.219C290.957 287.863 291.397 288.518 291.993 289.25L292.793 288.703C293.536 288.215 293.926 287.727 293.926 287.004C293.926 286.379 293.379 285.715 292.481 285.734C291.582 285.734 290.957 286.438 290.957 287.219ZM307.267 283.859V298H304.728V283.859H307.267ZM311.886 283.859V298H309.386V283.859H311.886ZM316.369 283.859V298H313.869V283.859H316.369ZM325.129 293.547V287.395H327.61V298H325.207V296.125H325.09C324.602 297.297 323.489 298.137 321.907 298.137C319.817 298.137 318.371 296.691 318.352 294.152V287.395H320.852V293.762C320.852 295.109 321.653 295.969 322.864 295.969C323.957 295.969 325.129 295.168 325.129 293.547ZM335.608 290.422C335.452 289.621 334.788 289.113 333.733 289.113C332.659 289.113 331.878 289.641 331.897 290.363C331.878 290.91 332.327 291.32 333.401 291.574L335.198 291.945C337.21 292.395 338.167 293.312 338.186 294.836C338.167 296.828 336.428 298.215 333.655 298.215C330.96 298.215 329.358 297.004 329.104 294.973H331.643C331.8 295.871 332.503 296.32 333.655 296.32C334.846 296.32 335.647 295.832 335.647 295.051C335.647 294.445 335.159 294.055 334.104 293.82L332.405 293.449C330.432 293.059 329.417 292.023 329.417 290.5C329.417 288.547 331.096 287.258 333.694 287.258C336.233 287.258 337.796 288.488 337.971 290.422H335.608ZM344.974 287.395V289.309H342.884V294.816C342.884 295.832 343.392 296.047 344.017 296.047C344.31 296.047 344.798 296.027 345.111 296.008V298.039C344.818 298.098 344.329 298.137 343.704 298.137C341.829 298.137 340.384 297.219 340.403 295.227V289.309H338.88V287.395H340.403V284.855H342.884V287.395H344.974ZM346.488 298V287.395H348.91V289.152H349.027C349.398 287.941 350.433 287.238 351.644 287.238C351.918 287.238 352.308 287.258 352.543 287.297V289.602C352.328 289.523 351.8 289.445 351.39 289.445C350.003 289.445 348.988 290.402 348.988 291.75V298H346.488ZM352.943 295.012C352.943 292.629 354.916 291.926 356.889 291.809C357.621 291.76 359.145 291.672 359.603 291.652V290.812C359.603 289.758 358.92 289.152 357.689 289.152C356.576 289.152 355.893 289.66 355.697 290.422H353.295C353.471 288.625 355.092 287.258 357.748 287.258C359.76 287.258 362.084 288.078 362.084 290.91V298H359.701V296.535H359.623C359.154 297.434 358.158 298.215 356.498 298.215C354.467 298.215 352.943 297.102 352.943 295.012ZM355.346 294.992C355.346 295.91 356.088 296.379 357.143 296.379C358.646 296.379 359.623 295.383 359.623 294.191V293.312L357.279 293.469C356.088 293.566 355.346 294.055 355.346 294.992ZM369.321 287.395V289.309H367.231V294.816C367.231 295.832 367.739 296.047 368.364 296.047C368.657 296.047 369.145 296.027 369.457 296.008V298.039C369.164 298.098 368.676 298.137 368.051 298.137C366.176 298.137 364.731 297.219 364.75 295.227V289.309H363.227V287.395H364.75V284.855H367.231V287.395H369.321ZM375.346 298.215C372.261 298.215 370.268 296.027 370.268 292.746C370.268 289.445 372.261 287.258 375.346 287.258C378.452 287.258 380.425 289.445 380.425 292.746C380.425 296.027 378.452 298.215 375.346 298.215ZM375.366 296.223C377.065 296.223 377.905 294.68 377.905 292.727C377.905 290.793 377.065 289.23 375.366 289.23C373.628 289.23 372.788 290.793 372.788 292.727C372.788 294.68 373.628 296.223 375.366 296.223ZM381.958 298V287.395H384.38V289.152H384.497C384.868 287.941 385.903 287.238 387.114 287.238C387.388 287.238 387.778 287.258 388.013 287.297V289.602C387.798 289.523 387.271 289.445 386.861 289.445C385.474 289.445 384.458 290.402 384.458 291.75V298H381.958Z" fill="black"/>
<rect width="550" height="80" transform="translate(0.677979 314.222)" fill="#444444"/>
<path d="M44.1936 339.941H51.5374V359.355C51.4983 364.902 47.1624 368.613 40.9514 368.613C35.5608 368.613 31.1467 365.917 31.1858 359.511H38.6077C38.6858 361.659 39.7014 362.792 41.4202 362.792C43.217 362.792 44.1545 361.62 44.1936 359.355V339.941ZM53.5889 362.363C53.5889 357.675 57.0655 355.878 61.4014 355.605L66.3624 355.409V353.691C66.3624 352.519 65.3858 351.855 63.9405 351.855C62.417 351.855 61.4405 352.519 61.2452 353.847H54.4092C54.6827 349.98 57.8077 346.738 64.0577 346.738C69.9561 346.738 73.7452 349.628 73.7452 353.73V368.222H66.8311V365.253H66.6749C65.4249 367.558 63.3155 368.573 60.503 368.573C56.4405 368.573 53.5889 366.581 53.5889 362.363ZM60.542 361.933C60.542 363.183 61.5186 363.847 62.8858 363.847C64.7217 363.847 66.4405 362.675 66.4014 360.683V359.55C65.6592 359.57 63.7061 359.648 62.7295 359.745C61.4014 359.902 60.542 360.8 60.542 361.933ZM97.0467 347.011L89.8983 368.222H81.3436L74.1952 347.011H81.9686L85.5233 361.191H85.7186L89.3124 347.011H97.0467ZM96.9499 362.363C96.9499 357.675 100.426 355.878 104.762 355.605L109.723 355.409V353.691C109.723 352.519 108.747 351.855 107.301 351.855C105.778 351.855 104.801 352.519 104.606 353.847H97.7702C98.0436 349.98 101.169 346.738 107.419 346.738C113.317 346.738 117.106 349.628 117.106 353.73V368.222H110.192V365.253H110.036C108.786 367.558 106.676 368.573 103.864 368.573C99.8014 368.573 96.9499 366.581 96.9499 362.363ZM103.903 361.933C103.903 363.183 104.88 363.847 106.247 363.847C108.083 363.847 109.801 362.675 109.762 360.683V359.55C109.02 359.57 107.067 359.648 106.09 359.745C104.762 359.902 103.903 360.8 103.903 361.933ZM135.212 348.691C135.056 346.777 133.806 345.683 131.267 345.683C128.806 345.683 127.712 346.62 127.673 347.948C127.634 349.394 128.962 350.214 131.58 350.761L133.923 351.308C140.017 352.597 142.712 355.566 142.751 359.902C142.712 365.448 138.455 368.573 131.306 368.573C124.001 368.573 119.275 365.37 119.197 358.417H126.306C126.423 361.034 128.259 362.441 131.189 362.441C133.728 362.441 135.095 361.386 135.134 359.902C135.095 358.534 133.962 357.753 130.798 357.05L127.947 356.425C122.986 355.331 119.939 352.87 119.939 348.495C119.9 343.144 124.626 339.55 131.267 339.55C138.064 339.55 142.322 343.183 142.361 348.691H135.212ZM155.194 368.613C148.358 368.613 144.256 364.198 144.256 357.675C144.256 351.152 148.358 346.738 155.194 346.738C161.326 346.738 165.233 350.253 165.311 355.722H158.436C158.24 353.495 157.03 352.284 155.311 352.284C153.201 352.284 151.795 354.042 151.795 357.597C151.795 361.191 153.201 362.988 155.311 362.988C157.03 362.988 158.24 361.777 158.436 359.511H165.311C165.194 365.058 161.405 368.613 155.194 368.613ZM167.714 368.222V347.011H174.862V350.995H175.097C175.878 348.066 177.636 346.738 179.94 346.738C180.605 346.738 181.269 346.816 181.855 346.972V353.339C181.112 353.066 179.862 352.948 179.081 352.948C176.776 352.948 175.097 354.589 175.097 357.05V368.222H167.714ZM183.594 368.222V347.011H190.976V368.222H183.594ZM187.265 344.706C185.234 344.706 183.594 343.183 183.594 341.308C183.594 339.433 185.234 337.909 187.265 337.909C189.297 337.909 190.937 339.433 190.937 341.308C190.937 343.183 189.297 344.706 187.265 344.706ZM194.122 376.191V347.011H201.426V350.683H201.622C202.442 348.573 204.395 346.738 207.598 346.738C211.856 346.738 215.919 349.98 215.919 357.636C215.919 364.941 212.09 368.495 207.52 368.495C204.473 368.495 202.481 366.855 201.622 364.745H201.505V376.191H194.122ZM201.348 357.597C201.348 360.8 202.637 362.831 204.864 362.831C207.051 362.831 208.34 360.839 208.34 357.597C208.34 354.394 207.051 352.441 204.864 352.441C202.637 352.441 201.348 354.394 201.348 357.597ZM230.861 347.011V352.363H227.15V361.425C227.15 362.441 227.658 362.831 228.673 362.87C229.22 362.909 230.314 362.831 231.134 362.753V368.261C230.431 368.378 229.298 368.534 227.619 368.534C222.462 368.534 219.728 366.581 219.767 362.167V352.363H217.033V347.011H219.767V341.933H227.15V347.011H230.861ZM251.175 368.613C245.628 368.613 242.151 365.292 242.151 360.722C242.151 357.284 244.417 355.195 247.737 352.87C245.804 350.566 244.456 348.613 244.456 346.113C244.456 342.284 247.151 339.667 251.331 339.667C255.589 339.667 258.206 342.402 258.206 345.605C258.206 348.3 256.761 350.175 254.456 351.894L252.386 353.456L258.48 360.839C259.202 359.433 259.651 357.734 259.651 355.8H262.894C262.894 359.726 261.702 362.05 260.628 363.456L264.534 368.222H260.511L258.519 365.839C256.683 367.675 253.792 368.613 251.175 368.613ZM245.589 360.722C245.589 363.339 247.776 365.644 251.097 365.644C253.011 365.644 254.964 364.863 256.526 363.417L249.808 355.37L248.831 356.113C246.292 357.948 245.589 359.902 245.589 360.722ZM247.815 346.152C247.815 347.714 248.968 349.296 250.355 350.956L252.23 349.589C253.792 348.534 254.847 347.519 254.847 345.605C254.847 344.198 253.44 342.558 251.448 342.558C249.3 342.558 247.815 344.394 247.815 346.152ZM287.231 339.941H290.786V360.136C290.786 365.566 287.583 368.613 282.661 368.613C277.973 368.613 274.575 365.917 274.575 361.542H278.051C278.051 363.925 280.005 365.488 282.661 365.488C285.59 365.488 287.231 363.652 287.231 360.136V339.941ZM306.47 359.355H310.298L313.306 363.261C315.415 361.425 316.744 358.32 316.744 354.081C316.744 346.777 312.759 342.831 307.642 342.831C302.525 342.831 298.54 346.777 298.54 354.081C298.54 361.386 302.525 365.331 307.642 365.331C308.697 365.331 309.712 365.156 310.65 364.823L306.47 359.355ZM320.142 354.081C320.142 359.355 318.306 363.476 315.337 365.956L319.009 370.878H315.181L312.72 367.558C311.177 368.261 309.478 368.613 307.642 368.613C300.376 368.613 295.142 363.027 295.142 354.081C295.142 345.136 300.376 339.55 307.642 339.55C314.869 339.55 320.142 345.136 320.142 354.081ZM337.467 359.511V347.011H340.787V368.222H337.467V364.628H337.233C336.217 366.777 334.147 368.495 330.944 368.495C326.92 368.495 324.069 365.878 324.069 360.488V347.011H327.428V360.253C327.428 363.3 329.342 365.253 332.037 365.253C334.42 365.253 337.467 363.456 337.467 359.511ZM354.284 368.652C348.151 368.652 344.362 364.316 344.362 357.792C344.362 351.269 348.19 346.738 353.972 346.738C358.425 346.738 363.112 349.472 363.112 357.323V358.73H347.722C347.878 363.222 350.495 365.683 354.284 365.683C356.823 365.683 358.425 364.589 359.206 363.261H362.8C361.784 366.464 358.659 368.652 354.284 368.652ZM347.761 355.878H359.714C359.714 352.323 357.448 349.706 353.972 349.706C350.3 349.706 347.956 352.597 347.761 355.878ZM366.687 368.222V347.011H369.93V350.253H370.164C370.945 348.105 373.133 346.659 375.633 346.659C376.14 346.659 377 346.698 377.39 346.738V350.136C377.156 350.058 376.219 349.902 375.359 349.902C372.312 349.902 370.047 352.011 370.047 354.863V368.222H366.687ZM382.684 376.191C381.942 376.191 381.239 376.152 380.809 376.113V373.105C381.161 373.144 381.942 373.183 382.45 373.183C383.817 373.183 384.95 373.066 386.083 369.98L386.708 368.378L378.856 347.011H382.528L388.309 363.847H388.544L394.325 347.011H397.997L389.012 371.269C387.762 374.589 385.692 376.191 382.684 376.191Z" fill="black"/>
<rect width="352" height="124" transform="translate(191.739 144)" fill="#444444"/>
<path d="M214.34 219V193.547H223.657C229.071 193.547 231.708 196.465 231.708 200.227C231.708 203.391 229.774 205.008 227.418 205.605V205.852C229.95 205.992 232.692 208.207 232.692 212.145C232.692 216.047 230.02 219 224.079 219H214.34ZM223.727 215.695C227.383 215.695 228.86 214.078 228.86 211.969C228.86 209.543 226.926 207.574 223.868 207.574H218.208V215.695H223.727ZM223.34 204.551C225.907 204.551 227.911 202.969 227.911 200.543C227.911 198.434 226.469 196.852 223.411 196.852H218.208V204.551H223.34ZM243.89 219.387C238.476 219.387 234.96 215.449 234.96 209.543C234.96 203.602 238.476 199.664 243.89 199.664C249.269 199.664 252.784 203.602 252.784 209.543C252.784 215.449 249.269 219.387 243.89 219.387ZM243.89 216.258C247.335 216.258 248.988 213.199 248.988 209.543C248.988 205.887 247.335 202.758 243.89 202.758C240.374 202.758 238.722 205.887 238.722 209.543C238.722 213.199 240.374 216.258 243.89 216.258ZM263.842 219.387C258.428 219.387 254.912 215.449 254.912 209.543C254.912 203.602 258.428 199.664 263.842 199.664C269.221 199.664 272.736 203.602 272.736 209.543C272.736 215.449 269.221 219.387 263.842 219.387ZM263.842 216.258C267.287 216.258 268.939 213.199 268.939 209.543C268.939 205.887 267.287 202.758 263.842 202.758C260.326 202.758 258.674 205.887 258.674 209.543C258.674 213.199 260.326 216.258 263.842 216.258ZM284.637 199.91V202.898H280.735V213.375C280.735 215.52 281.825 215.906 283.02 215.941C283.548 215.941 284.391 215.871 284.919 215.836V219.105C284.391 219.176 283.583 219.246 282.563 219.246C279.61 219.246 276.973 217.629 277.008 214.148V202.898H274.196V199.91H277.008V195.34H280.735V199.91H284.637ZM297.98 205.113C297.628 203.602 296.433 202.617 294.359 202.617C292.214 202.617 290.667 203.742 290.703 205.184C290.667 206.309 291.581 207.117 293.691 207.609L296.714 208.312C300.23 209.086 301.917 210.773 301.953 213.48C301.917 216.926 299.035 219.387 294.148 219.387C289.578 219.387 286.835 217.348 286.378 213.797H290.21C290.527 215.52 291.863 216.363 294.113 216.363C296.538 216.363 298.085 215.379 298.12 213.762C298.085 212.531 297.171 211.723 295.167 211.266L292.179 210.633C288.734 209.859 286.941 208.031 286.941 205.395C286.941 201.984 289.894 199.664 294.324 199.664C298.578 199.664 301.214 201.844 301.601 205.113H297.98ZM313.818 199.91V202.898H309.916V213.375C309.916 215.52 311.006 215.906 312.201 215.941C312.729 215.941 313.572 215.871 314.1 215.836V219.105C313.572 219.176 312.764 219.246 311.744 219.246C308.791 219.246 306.154 217.629 306.19 214.148V202.898H303.377V199.91H306.19V195.34H309.916V199.91H313.818ZM316.755 219V199.91H320.376V202.934H320.587C321.29 200.895 323.188 199.629 325.438 199.629C325.895 199.629 326.634 199.664 327.02 199.699V203.285C326.704 203.215 325.825 203.074 325.052 203.074C322.45 203.074 320.516 204.867 320.516 207.363V219H316.755ZM328.023 213.621C328.023 209.262 331.714 208.137 335.16 207.891C336.425 207.803 339.291 207.645 340.187 207.609L340.152 206.098C340.152 203.953 338.851 202.688 336.285 202.688C334.07 202.688 332.734 203.707 332.347 205.113H328.621C328.972 201.949 331.925 199.664 336.425 199.664C339.449 199.664 343.914 200.789 343.914 206.309V219H340.257V216.398H340.117C339.378 217.84 337.621 219.422 334.457 219.422C330.835 219.422 328.023 217.348 328.023 213.621ZM331.679 213.656C331.679 215.484 333.191 216.434 335.3 216.434C338.359 216.434 340.187 214.395 340.187 212.109V210.352L335.687 210.668C333.226 210.844 331.679 211.758 331.679 213.656ZM347.729 226.172V199.91H351.385V203.004H351.701C352.369 201.809 353.67 199.664 357.186 199.664C361.791 199.664 365.201 203.285 365.201 209.508C365.201 215.66 361.862 219.387 357.221 219.387C353.74 219.387 352.369 217.277 351.701 216.012H351.49V226.172H347.729ZM351.42 209.438C351.42 213.445 353.178 216.188 356.377 216.188C359.682 216.188 361.405 213.27 361.405 209.438C361.405 205.676 359.717 202.863 356.377 202.863C353.143 202.863 351.42 205.465 351.42 209.438Z" fill="black"/>
<rect width="328" height="63" transform="translate(110.739 73)" fill="#444444"/>
<path d="M153.161 99.625C152.34 95.7188 148.981 93.6094 145.27 93.6094C140.153 93.6094 136.168 97.5547 136.168 104.859C136.168 112.164 140.153 116.109 145.27 116.109C148.981 116.109 152.301 114 153.161 110.133H156.676C155.661 115.914 151.012 119.391 145.27 119.391C138.004 119.391 132.77 113.805 132.77 104.859C132.77 95.9141 138.004 90.3281 145.27 90.3281C150.973 90.3281 155.621 93.7656 156.676 99.625H153.161ZM176.228 97.8281C175.915 95.0547 173.376 93.4531 169.978 93.4531C166.228 93.4531 163.767 95.4062 163.767 98.1016C163.767 101.07 167.087 102.164 169.236 102.711L172.048 103.492C175.095 104.273 180.056 106.031 180.056 111.305C180.056 115.914 176.345 119.508 169.782 119.508C163.689 119.508 159.9 116.344 159.587 111.656H163.181C163.493 114.82 166.423 116.305 169.782 116.305C173.689 116.305 176.618 114.312 176.618 111.227C176.618 108.492 174.001 107.438 171.032 106.578L167.556 105.641C163.103 104.352 160.368 102.086 160.368 98.2578C160.368 93.4922 164.626 90.3281 170.095 90.3281C175.564 90.3281 179.509 93.5312 179.665 97.8281H176.228ZM199.725 97.8281C199.412 95.0547 196.873 93.4531 193.475 93.4531C189.725 93.4531 187.264 95.4062 187.264 98.1016C187.264 101.07 190.584 102.164 192.732 102.711L195.545 103.492C198.592 104.273 203.553 106.031 203.553 111.305C203.553 115.914 199.842 119.508 193.279 119.508C187.186 119.508 183.396 116.344 183.084 111.656H186.678C186.99 114.82 189.92 116.305 193.279 116.305C197.186 116.305 200.115 114.312 200.115 111.227C200.115 108.492 197.498 107.438 194.529 106.578L191.053 105.641C186.6 104.352 183.865 102.086 183.865 98.2578C183.865 93.4922 188.123 90.3281 193.592 90.3281C199.061 90.3281 203.006 93.5312 203.162 97.8281H199.725Z" fill="black"/>
<rect width="328" height="63" transform="translate(152.739 2)" fill="#444444"/>
<path d="M174.614 54V37.0312H176.723V44.5781H185.7V37.0312H187.832V54H185.7V46.4297H176.723V54H174.614ZM190.141 38.9062V37.0312H202.938V38.9062H197.618V54H195.485V38.9062H190.141ZM205.271 37.0312H207.802L213.521 51H213.732L219.451 37.0312H221.982V54H219.99V41.1797H219.826L214.552 54H212.677L207.404 41.1797H207.263V54H205.271V37.0312ZM225.252 54V37.0312H227.361V52.125H235.236V54H225.252Z" fill="black"/>
</g>
<defs>
<clipPath id="clip0_62_22216">
<rect width="411" height="66" fill="white" transform="translate(548.833 0.0344238) rotate(61.2404)"/>
</clipPath>
</defs>
</svg>
