<svg width="100" height="100" viewBox="0 0 100 100" fill="none" xmlns="http://www.w3.org/2000/svg">
<path d="M15.88 41.5415C14.428 41.3673 12.9759 41.3268 11.5117 41.4159C10.1324 41.4969 8.68841 42.2705 8.14641 43.5747C7.69339 44.6562 8.32033 45.8794 9.63084 45.8024C11.091 45.7133 12.5431 45.7579 13.9952 45.928C15.3178 46.0859 16.8832 44.9194 17.3604 43.7691C17.8822 42.5135 17.1177 41.6913 15.876 41.5415H15.88Z" fill="black"/>
<path d="M18.1492 32.2702C17.0005 31.6707 15.8518 31.0672 14.7031 30.4678C13.5624 29.8683 11.6856 30.0384 10.7028 30.8768C9.75224 31.6829 9.83314 32.74 10.9616 33.3313C12.1104 33.9308 13.2591 34.5343 14.4078 35.1337C15.5484 35.7332 17.4252 35.5631 18.4081 34.7247C19.3586 33.9186 19.2777 32.8615 18.1492 32.2702Z" fill="black"/>
<path d="M26.7524 27.9848C27.6585 27.7499 28.6616 27.2193 27.8243 26.312C26.7161 25.1091 25.6118 23.9021 24.5035 22.6991C24.1638 22.3265 23.2739 22.1442 22.8209 22.0754C22.1374 21.9701 21.3001 21.962 20.6246 22.1361C19.7186 22.371 18.7155 22.9016 19.5527 23.8089C20.661 25.0119 21.7652 26.2189 22.8735 27.4218C23.2133 27.7944 24.1031 27.9767 24.5561 28.0456C25.2397 28.1509 26.077 28.159 26.7524 27.9848Z" fill="black"/>
<path d="M29.7858 38.9693C33.0743 40.6786 36.3667 42.3797 39.6551 44.089C42.9638 45.8023 46.2724 47.5196 49.581 49.2329C51.2111 50.0794 52.8411 51.1082 54.544 51.8049C56.2954 52.5258 57.4562 50.9786 58.6535 49.9215C61.3109 47.5723 63.9683 45.219 66.7552 43.0156C69.4814 40.8649 72.4138 38.9936 75.1926 36.9158C78.2545 34.6274 81.0373 32.019 83.533 29.1675C83.1528 29.0784 82.7604 29.0177 82.3762 28.969C78.8006 28.4992 75.0996 28.6936 71.4957 28.6531C63.669 28.5681 55.8343 29.1959 48.129 30.5203C43.9183 31.2453 39.7401 32.1607 35.6184 33.2746C33.4949 33.8457 31.3876 34.4735 29.3005 35.162C28.0344 35.5833 26.7846 36.0166 25.6885 36.7254C27.0192 37.5355 28.4106 38.2565 29.7858 38.9693Z" fill="black"/>
<path d="M69.4653 48.1313C71.0307 49.6745 72.8589 50.9503 74.6346 52.2869C77.3122 54.2999 79.9373 56.3778 82.5057 58.5163C85.7294 61.2017 88.8601 63.9843 91.9058 66.8601C91.1494 59.4884 90.1342 52.1452 88.8237 44.8505C88.1644 41.1809 87.4323 37.5275 86.6314 33.8862C84.3704 36.4622 81.8747 38.8398 79.1405 40.9581C75.9532 43.4288 72.6526 45.7011 69.4653 48.1353V48.1313Z" fill="black"/>
<path d="M69.6393 54.96C68.1548 53.8421 66.6299 52.7688 65.2547 51.5415C64.195 52.4569 63.1474 53.3844 62.0957 54.3119C61.2099 55.0937 60.2432 56.2521 59.0864 56.6328C57.9539 57.0054 56.975 56.3776 55.9921 55.8754C54.6655 55.1949 53.3469 54.5023 52.0242 53.8178C51.7168 53.6598 51.4094 53.4978 51.102 53.3399C46.2604 61.7767 41.2529 70.1164 36.0918 78.371C39.4126 77.9862 42.7252 77.5406 46.0298 77.0384C52.7199 76.0218 59.3251 74.6244 65.9787 73.4093C73.2755 72.0808 80.637 71.1614 88.0349 70.6146C84.6373 67.3581 81.1305 64.211 77.5064 61.1935C74.9339 59.0508 72.3088 56.973 69.6352 54.964L69.6393 54.96Z" fill="black"/>
<path d="M46.6931 51.0513C42.9557 49.1152 39.2224 47.1751 35.485 45.2391C31.5009 43.1734 27.444 41.2333 24.0221 38.3818C23.9816 38.4831 23.9533 38.5884 23.9372 38.6897C23.2415 40.3746 23.6702 42.1365 24.0625 44.024C24.7582 47.3614 25.4742 50.6949 26.178 54.0323C27.5815 60.6871 28.9082 67.3661 29.7697 74.1139C29.9275 75.3574 30.0165 76.5806 30.882 77.4717C36.2657 68.8485 41.4794 60.1241 46.5111 51.2984C46.5637 51.2093 46.6284 51.1323 46.6891 51.0513H46.6931Z" fill="black"/>
</svg>
