<svg width="100" height="100" viewBox="0 0 100 100" fill="none" xmlns="http://www.w3.org/2000/svg">
<path d="M91.0838 28.706C86.9864 26.3082 82.788 24.0684 78.5895 21.8528C76.741 20.8807 74.8925 19.9046 73.0117 19.0014C71.5839 18.3128 70.6091 17.7863 68.9952 18.086C68.6352 18.1508 68.3683 18.2885 68.1742 18.4627C66.9041 19.3011 65.9455 21.1116 65.1244 22.2457C63.7532 24.1494 62.4387 26.1219 60.934 27.9283C60.388 28.5845 59.8298 29.2609 59.1624 29.6862C53.5401 23.4973 42.0206 23.9833 36.0626 29.7348C33.8339 27.7906 31.2776 26.2596 28.4342 25.1984C27.0913 24.6962 23.3903 24.9392 22.3022 25.9639C16.3645 31.5574 10.9485 37.6451 6.09479 44.1864C5.95726 44.3039 5.96938 44.4011 6.13117 44.4821C11.6604 47.1269 16.1987 50.3915 20.2434 54.9887C23.0222 58.1439 25.0487 61.3396 27.2207 64.916C28.3371 66.7508 29.324 68.5735 30.8448 70.1329C33.1018 72.4456 35.9048 74.1063 38.7524 75.6008C42.332 77.4802 45.7863 78.27 49.8391 78.0391C50.3973 78.0067 50.9514 77.9622 51.5015 77.9014C50.8948 79.4284 51.6714 81.0121 53.2206 81.8262C54.98 82.7537 57.2897 82.7092 59.2271 82.693C64.9586 82.6403 70.4676 80.9432 75.0301 77.4518C79.7706 73.8227 83.0589 68.9907 84.8144 63.3283C85.7487 60.3149 86.8368 57.4432 86.5254 54.2393C86.3636 52.5828 85.9348 50.9626 85.6679 49.3222C85.4818 48.1719 85.2998 47.7588 85.6153 47.0378C87.1523 43.5302 89.9796 40.4439 91.9979 37.1996C92.7988 35.9116 93.7817 34.4656 94.0042 32.9265C94.3156 30.7717 92.7341 29.6659 91.0878 28.706H91.0838ZM46.2393 75.2525C43.5414 73.9604 40.8354 72.4497 38.5259 70.5339C35.4316 67.97 33.66 64.2518 31.6053 60.8738C29.5384 57.4675 27.0306 54.4864 24.2316 51.6269C22.7431 50.108 21.1535 48.7025 19.4143 47.4753C18.4597 46.8029 17.4728 46.1873 16.4616 45.6081C15.6445 45.1382 12.6595 44.1094 12.7161 43.1009C12.7444 42.5703 13.9983 41.4119 14.334 40.9785C14.961 40.1766 15.5919 39.3787 16.2351 38.5929C17.4404 37.1145 18.6781 35.6604 19.9441 34.2347C21.8735 32.0678 23.8757 29.9697 25.9385 27.9324C28.7011 29.4958 31.1158 31.5696 33.1018 34.1335C33.7651 34.9921 39.0719 34.3481 39.4602 33.3396C40.435 30.8041 42.9023 27.3815 45.8065 26.7699C46.5952 26.6039 48.5084 27.3815 49.5803 27.9445C50.4135 28.382 51.1658 28.9085 51.8494 29.5161C48.6499 29.8117 45.7013 31.1889 43.3108 33.3234C40.7788 35.5794 39.0194 38.6739 38.0405 41.8858C37.1466 44.8223 36.548 47.9532 39.0679 50.2457C42.967 53.8019 48.6823 52.7002 51.9222 49.1157C54.3612 51.0801 56.9014 52.927 59.8257 54.1097C61.4639 54.774 64.1374 55.3127 65.5005 54.2717C67.4339 55.6489 68.0892 58.3545 68.2146 60.6632C68.344 63.0164 68.3481 65.6411 66.7504 67.5488C64.8494 69.821 61.48 70.9348 58.9076 72.2674C56.7315 73.3975 53.9446 74.7138 52.2903 76.6701C50.183 76.8767 48.112 76.1395 46.2433 75.2444L46.2393 75.2525Z" fill="black"/>
</svg>
