<svg width="100" height="100" viewBox="0 0 100 100" fill="none" xmlns="http://www.w3.org/2000/svg">
<path d="M86.995 67.0891C86.5258 66.8178 86.0121 66.6071 85.4701 66.4411C88.3257 61.5523 89.9841 55.9102 90.0367 49.9116C89.9679 42.139 87.2336 34.9294 82.6185 29.1698C83.6136 28.5299 84.56 27.8251 85.4216 27.0475C86.3559 26.205 87.2175 25.237 87.7676 24.0948C88.2327 23.1267 88.528 21.9278 88.1114 20.891C87.626 19.688 86.6633 18.5823 85.6926 17.7438C84.7259 16.9095 83.6136 16.3667 82.3233 16.3789C81.9957 16.3789 81.668 16.4113 81.3444 16.4477C81.1382 16.472 80.8955 16.468 80.7054 16.5449C80.4465 16.6502 80.1998 16.8487 79.9652 16.9945C79.1845 17.4644 78.4079 17.9383 77.6273 18.4081C77.7607 17.1687 77.9792 15.9374 77.9873 14.6899C77.9994 13.1872 77.6111 11.7736 76.7253 10.5464C75.9446 9.46899 74.8768 8.57387 73.5946 8.18504C72.0697 7.7233 70.4882 8.15263 69.291 9.17332C68.029 10.2507 67.0542 11.7615 66.3666 13.2642C65.7558 14.5967 65.3918 16.0346 65.2664 17.4927C65.2664 17.5089 65.2664 17.5251 65.2664 17.5413C51.9105 13.5679 36.7062 17.4927 27.4436 28.056C22.0681 34.1882 19.3379 42.1026 19.3743 50.0291C18.8363 49.7699 18.2701 49.5633 17.6674 49.4175C15.9767 49.0165 14.1565 49.0449 12.5507 49.7577C10.6456 50.6042 9.44837 52.3823 9.13288 54.4156C8.8012 56.5623 9.12478 58.8912 9.72341 60.9691C10.2533 62.812 11.1229 64.5455 12.2393 66.1008C13.392 67.7048 14.7956 69.0859 16.2881 70.3699C18.355 72.148 20.4259 73.9261 22.4928 75.7042C22.8973 76.0525 23.326 76.3806 23.6618 76.7978C23.9732 77.1866 24.2482 77.6079 24.5556 77.9967C25.0329 78.5921 25.5952 79.1632 26.396 79.228C27.8845 79.3455 29.2395 77.7861 30.19 76.8423C30.643 76.3968 31.0961 75.9553 31.5531 75.5138C39.8207 82.2414 51.049 84.9673 61.7474 83.007C63.1672 82.7477 64.5505 82.3994 65.9014 81.9741C66.4515 82.6019 67.038 83.1973 67.6447 83.7725C69.3516 85.3886 71.0585 87.0087 72.7654 88.6248C73.1012 88.9407 73.4531 89.2404 73.7241 89.6171C73.9748 89.9654 74.1933 90.3381 74.444 90.6864C74.8283 91.217 75.2894 91.7354 75.977 91.8245C77.2552 91.9906 78.4848 90.7026 79.3423 89.933C80.4667 88.9205 81.6316 87.9686 82.6752 86.8669C83.8927 85.5789 85.0737 84.1775 85.9191 82.61C87.2822 80.0786 88.3702 77.2514 88.8718 74.4121C89.1185 73.0148 89.2115 71.5566 88.9082 70.1593C88.6493 68.9725 88.083 67.7048 86.995 67.0729V67.0891ZM16.5389 58.0204C16.1587 58.5389 15.6531 58.8102 15.3052 58.9682C14.6661 59.2598 13.9179 59.3813 13.2747 59.2193C12.7246 59.0816 12.2433 58.7333 11.9683 58.1095C11.5395 57.1374 11.7822 55.9183 12.0573 55.0677C12.3485 54.1685 12.7368 53.4719 13.206 52.9858C13.748 52.4269 14.476 52.1879 15.1515 52.3499C16.365 52.6335 16.7047 53.7433 16.7047 53.7433C17.0768 54.9665 17.4692 56.7446 16.5429 58.0204H16.5389ZM69.8491 11.8587C69.9462 11.1418 70.5125 10.676 70.9696 10.4168C71.4549 10.1413 71.9201 10.0158 72.3569 10.0441C72.8625 10.0765 73.3641 10.3682 73.6957 10.8299C74.2903 11.6521 74.0921 12.3893 74.0921 12.3893C73.8737 13.2034 73.4733 14.2929 72.4944 14.3942C72.094 14.4347 71.7098 14.2808 71.4549 14.1633C70.9857 13.9446 70.5165 13.5841 70.2051 13.1386C69.9381 12.7579 69.7844 12.3204 69.8491 11.8546V11.8587ZM34.5988 72.2493C35.6707 70.9329 36.6698 69.5234 37.3978 67.9964C38.8337 64.9829 39.938 61.6455 40.3546 58.3282C40.5609 56.696 40.5892 54.9989 40.1604 53.399C39.7964 52.0381 39.0643 50.6002 37.77 49.9319C36.2653 49.1542 34.3642 48.8869 32.6897 48.8829C31.0192 48.8829 29.4579 49.296 28.1879 50.4139C27.8643 50.6974 27.565 51.0052 27.2737 51.3212C27.0917 51.5196 26.845 51.7221 26.7236 51.9611C26.5578 52.2851 26.485 52.6942 26.3718 53.0385C26.1816 53.6217 25.9915 54.209 25.8014 54.7923C24.7053 47.7771 25.9187 40.4257 29.5793 34.0951C35.699 23.4994 48.0073 16.9135 60.2226 19.4652C62.0104 19.8379 63.7294 20.3847 65.3635 21.0773C65.3999 21.381 65.4403 21.6889 65.4848 21.9926L66.4192 28.1856C66.4798 28.5906 66.5648 28.9916 66.5486 29.4048C66.5365 29.7855 66.4839 30.1662 66.4677 30.547C66.4475 31.1302 66.4879 31.7418 66.9207 32.1792C67.7216 32.9934 69.2869 32.7625 70.3062 32.6936C71.645 32.6005 72.9798 32.5721 74.3106 32.3737C75.5725 32.1833 76.8547 31.9241 78.0682 31.4947C81.7772 36.7764 83.921 43.2164 83.9776 49.7982C83.925 56.0074 82.0725 61.9978 78.8084 67.0486C78.7841 67.0689 78.7558 67.0851 78.7275 67.1053C78.4362 67.3362 78.1693 67.5873 77.9023 67.8465C77.7365 68.0086 77.5181 68.1746 77.4008 68.3771C77.243 68.6485 77.1621 68.9968 77.0529 69.2925C77.0044 69.4221 76.9558 69.5517 76.9033 69.6813C76.4421 70.2565 75.9608 70.8114 75.4593 71.3541C74.9051 70.4226 74.3591 69.4829 73.6998 68.6202C72.6684 67.2754 71.3417 66.2872 69.7076 65.8173C68.2717 65.4042 66.6983 65.3475 65.2907 65.8943C63.6161 66.5423 62.5079 68.0248 62.156 69.7623C61.7798 71.5972 61.9618 73.6183 62.3906 75.4288C62.698 76.733 63.2036 77.9805 63.8588 79.147C53.6012 82.9381 42.2071 79.7991 34.6029 72.2614L34.5988 72.2493ZM64.7325 70.4752C64.9752 69.8758 65.3028 69.4221 65.7032 69.1264C66.1684 68.7862 66.7994 68.685 67.3899 68.8551C68.4497 69.1629 68.7611 69.9689 68.7611 69.9689C69.1049 70.86 69.4689 72.1358 68.6762 72.9419C68.3526 73.2699 67.9157 73.4158 67.6124 73.4927C67.0582 73.6385 66.4111 73.6547 65.8448 73.4846C65.3635 73.3388 64.9388 73.0553 64.692 72.5895C64.3037 71.8726 64.4979 71.0423 64.7285 70.4712L64.7325 70.4752Z" fill="black" stroke="black" stroke-width="2" stroke-miterlimit="10"/>
<path d="M58.7585 55.4523C59.1509 58.7695 56.4894 60.8149 53.4679 61.0336C51.9835 61.143 49.953 61.3658 48.5171 60.8716C46.4057 60.1466 47.1055 57.8541 47.4412 56.1246C47.6475 55.0715 44.6624 52.7385 44.5087 53.5283C44.0072 56.1084 43.9748 58.409 45.6453 60.5759C47.061 62.4067 49.0793 63.7028 51.3727 64.0471C56.1132 64.7599 62.3543 63.6218 61.6344 57.5422C61.5252 56.6066 58.6048 54.1886 58.7545 55.4563L58.7585 55.4523Z" fill="black"/>
<path d="M46.822 47.0036C48.1487 45.5293 48.181 41.6369 46.2274 40.6486C46.0009 40.5352 45.7663 40.4501 45.5277 40.3934C43.5498 39.9357 41.2159 41.402 40.6375 43.3056C40.1562 44.8893 40.8357 46.7646 42.2595 47.6314C43.6792 48.4982 45.7137 48.2349 46.826 47.0036H46.822Z" fill="black"/>
<path d="M61.3995 50.0655C62.8192 50.9322 64.8537 50.669 65.966 49.4377C67.2927 47.9633 67.3251 44.071 65.3714 43.0827C65.1449 42.9693 64.9103 42.8842 64.6717 42.8275C62.6938 42.3698 60.36 43.8361 59.7815 45.7397C59.3002 47.3234 59.9797 49.1987 61.4035 50.0655H61.3995Z" fill="black"/>
</svg>
