<svg width="100" height="100" viewBox="0 0 100 100" fill="none" xmlns="http://www.w3.org/2000/svg">
<path d="M63.8644 12.2888C48.8899 6.95858 31.3023 11.0906 20.7796 23.0946C10.5077 34.8123 9.10438 52.521 17.3351 65.7496C18.3733 67.4148 19.5303 68.9698 20.7928 70.4147C20.8016 72.4851 20.9336 74.5687 21.4967 76.5687C22.0465 78.5246 22.9176 80.3615 24.1009 82.0135C26.4676 85.3305 29.9649 87.5816 33.8097 88.793C36.1061 89.5198 38.5124 90.0044 40.9275 90C42.0581 90 43.2502 89.8766 44.3324 89.5418C45.441 89.1982 46.466 88.5859 47.3898 87.8943C48.9823 86.7005 50.5747 85.2821 51.5645 83.5244C53.7421 83.476 55.9285 83.2601 58.0884 82.8636C75.5045 79.6699 88.7062 64.7144 88.8602 46.8516C88.7238 31.1296 78.5619 17.5133 63.8644 12.28V12.2888ZM60.9566 78.4321C58.2776 79.4893 55.5193 80.1016 52.7611 80.3131C52.8975 79.8329 53.0294 79.3439 53.0382 78.8505C53.0514 78.247 52.8887 77.6524 52.7567 77.0709C52.2684 74.8595 51.7317 72.4675 50.1656 70.7451C49.6949 70.2297 49.0922 69.5998 48.4104 69.0579L52.4796 67.6042C54.4372 66.9082 56.4388 66.2827 58.348 65.4545C59.9536 64.7585 61.6473 63.8026 62.5755 62.252C63.4025 60.8776 63.6181 59.1816 63.0902 57.6574C62.4875 55.9218 60.9478 54.9791 59.1618 54.8601C56.9446 54.7148 54.6791 55.1641 52.5235 55.6266C48.9031 56.4063 45.265 57.2962 41.8249 58.6838C39.0755 59.7939 36.458 61.2608 34.2585 63.2299C34.2321 61.4987 33.8405 59.8071 32.776 58.3358C31.509 56.5914 29.3007 55.5738 27.1495 55.8865C24.1977 56.3094 22.7064 58.9833 21.897 61.6617C17.1503 51.5915 17.4143 39.495 23.0979 29.6539C29.7538 18.13 43.1403 10.9673 56.4255 13.7425C71.6992 16.9274 82.1295 31.4732 82.2615 46.7282C82.1427 60.5207 73.8944 73.3265 60.9566 78.4277V78.4321Z" fill="white"/>
<path d="M41.3278 33.2487C42.5156 31.6585 42.0801 27.9185 39.9509 27.2225C39.7046 27.1432 39.4538 27.0903 39.1987 27.0683C37.1047 26.8877 34.8831 28.5969 34.518 30.4999C34.2101 32.0858 35.1427 33.795 36.7088 34.4469C38.2749 35.0945 40.338 34.5791 41.3322 33.2531L41.3278 33.2487Z" fill="white"/>
<path d="M59.9538 27.077C59.7075 26.9977 59.4568 26.9448 59.2016 26.9228C57.1076 26.7422 54.8861 28.4514 54.5209 30.3544C54.213 31.9403 55.1456 33.6495 56.7117 34.3014C58.2778 34.949 60.341 34.4336 61.3352 33.1076C62.5229 31.5174 62.0874 27.7774 59.9582 27.0814L59.9538 27.077Z" fill="white"/>
<path d="M52.6599 43.3097C49.343 42.1863 45.9337 41.5608 42.432 41.4727C41.4026 41.4463 40.1665 41.9264 39.665 42.8956C39.2515 43.6885 39.5506 44.6488 40.5756 44.6708C43.7913 44.7501 46.8839 45.2788 49.9281 46.314C51.5822 46.8734 54.8419 44.0497 52.6599 43.3097Z" fill="white"/>
<path d="M31.4692 39.6579C31.0556 39.8341 29.4632 40.6711 28.3502 41.0368C27.9851 40.4905 27.5584 39.9707 27.136 39.6624C25.4028 38.3981 22.253 40.6491 20.7353 41.5257C20.2866 41.7856 22.5874 45.53 23.2032 45.1732C24.3338 44.5168 26.1902 43.2393 27.7783 42.997C28.0115 43.3671 28.2974 43.7327 28.6449 44.1116C29.0321 44.53 29.318 44.8384 29.8679 44.8692C30.9457 44.9265 32.978 43.7107 33.9327 43.3054C34.2582 43.1688 32.2522 39.3232 31.4648 39.6579H31.4692Z" fill="white"/>
<path d="M71.4619 42.9397C70.9472 42.0498 69.8694 41.7327 68.9368 41.5124C65.8706 40.7944 63.5787 43.0234 61.3483 44.9C60.86 45.3096 64.5245 47.0144 65.3647 46.3052C66.2137 45.5916 67.0935 44.8691 68.0262 44.2216C68.1361 44.4991 68.2637 44.7722 68.4265 45.0189C69.0071 45.8955 69.5834 46.455 70.5424 46.8646C73.0939 47.9483 75.0691 46.8691 77.2071 45.3801C77.6426 45.0762 74.1365 43.3141 73.1907 43.9749C72.8696 44.1995 72.5088 44.4594 72.1261 44.7149C71.9414 44.1202 71.7874 43.5079 71.4619 42.9441V42.9397Z" fill="white"/>
</svg>
