<svg width="100" height="100" viewBox="0 0 100 100" fill="none" xmlns="http://www.w3.org/2000/svg">
<path d="M59.136 53.6645C58.0884 55.9813 56.0579 57.6217 53.5339 58.0753C50.5206 58.6181 46.5931 57.1357 47.4749 53.4337C47.7742 52.1699 43.9518 50.9062 43.6889 52.012C42.5685 56.7063 47.8106 59.3674 51.6208 60.0965C56.1105 60.9551 60.9359 59.4768 62.9219 55.0902C63.4032 54.025 59.6618 52.5021 59.136 53.6686V53.6645Z" fill="black"/>
<path d="M86.119 69.1895C89.4276 64.0335 91.3691 57.9539 91.4257 51.4572C91.3489 42.6558 87.8501 34.5713 82.0742 28.5079C82.9236 27.8437 83.7326 27.1187 84.4202 26.2964C86.0543 24.3401 87.5063 22.076 88.4447 19.6984C88.9058 18.5279 89.2496 17.2763 89.2335 16.0086C89.2213 14.9312 88.9544 13.7282 88.1211 12.987C87.1544 12.1243 85.7994 11.5654 84.5577 11.2454C83.32 10.9254 82.0863 10.9376 80.9336 11.5208C80.6423 11.6707 80.3592 11.8408 80.0842 12.019C79.9102 12.1324 79.6918 12.2337 79.5543 12.3876C79.3723 12.5941 79.2388 12.8858 79.0891 13.1207C78.5997 13.8903 78.1143 14.6598 77.6249 15.4294C77.1921 14.2588 76.8443 13.0599 76.2982 11.938C75.643 10.5852 74.6641 9.49159 73.3294 8.79088C72.1523 8.17523 70.8014 7.84715 69.4747 8.06992C67.9053 8.33319 66.6757 9.42273 66.0609 10.8687C65.4097 12.3957 65.2074 14.1819 65.256 15.8344C65.2883 16.847 65.4461 17.8515 65.7211 18.8276C52.5958 15.3038 37.8768 19.2934 28.8286 29.6137C22.8828 36.3939 20.1728 45.3614 20.8644 54.1061C19.4245 53.215 17.8268 52.7209 16.0997 52.7452C14.3645 52.7695 12.6009 53.2353 11.2176 54.3167C9.5714 55.5966 8.8393 57.6137 9.0294 59.6631C9.23164 61.826 10.1094 64.0092 11.1934 65.8764C12.156 67.537 13.418 69.0032 14.8782 70.2426C16.3869 71.5185 18.0816 72.5189 19.8411 73.4019C22.2801 74.6251 24.7151 75.8443 27.1541 77.0675C27.6314 77.3064 28.1248 77.5211 28.5536 77.8451C28.95 78.1489 29.318 78.4891 29.7144 78.7889C30.3212 79.2506 31.0047 79.6678 31.7975 79.5341C32.6833 79.3843 33.3709 78.6592 33.9331 77.8573C42.0915 84.0138 52.8587 86.4521 63.1325 84.5687C64.3904 84.3378 65.624 84.034 66.8334 83.6736C68.0711 85.4436 69.3048 87.2136 70.5425 88.9836C70.8054 89.3602 71.0926 89.7248 71.2827 90.1501C71.4607 90.5429 71.5982 90.952 71.7762 91.3449C72.0472 91.9444 72.395 92.5398 73.0503 92.7666C74.2678 93.1838 75.732 92.1712 76.727 91.5879C78.0334 90.8265 79.3642 90.1258 80.61 89.2549C82.062 88.2383 83.4979 87.1042 84.6426 85.7392C86.487 83.5318 88.1211 80.9841 89.1809 78.3028C89.7027 76.9824 90.0869 75.5729 90.0707 74.1472C90.0586 72.9321 89.7552 71.5752 88.8168 70.7408C88.0645 70.0725 87.1099 69.5703 86.1271 69.1977L86.119 69.1895ZM17.0907 61.3481C16.848 61.9435 16.4233 62.3323 16.124 62.5672C15.5739 63.0047 14.8782 63.3044 14.2148 63.3044C13.6445 63.3044 13.0985 63.0857 12.6778 62.5429C12.0266 61.7045 11.9659 60.4651 12.0266 59.57C12.0913 58.6263 12.2976 57.8567 12.6333 57.2734C13.0256 56.597 13.6728 56.192 14.3645 56.1799C15.6103 56.1596 16.2089 57.156 16.2089 57.156C16.8682 58.2536 17.6772 59.8819 17.0866 61.344L17.0907 61.3481ZM68.1156 11.2251C68.4271 10.7634 68.7911 10.4434 69.1956 10.2733C69.6648 10.0748 70.2432 10.1153 70.7447 10.3827C71.6427 10.8566 71.7923 11.6059 71.7923 11.6059C71.9582 12.4281 72.0836 13.5865 71.2503 14.113C70.9106 14.3277 70.498 14.3601 70.2149 14.3682C69.6971 14.3803 69.1147 14.2669 68.6374 14.0077C68.2289 13.7849 67.8972 13.4609 67.7476 13.0154C67.517 12.3268 67.8163 11.6626 68.1116 11.2251H68.1156ZM36.271 74.0783C36.7281 73.3249 37.173 72.5675 37.5694 71.7737C38.4916 69.9348 39.3289 67.9825 39.7415 65.9533C40.4048 62.6806 40.6637 59.1771 40.2673 55.8558C40.0731 54.2235 39.6889 52.571 38.884 51.121C38.2004 49.8897 37.1447 48.6746 35.7209 48.3384C34.0707 47.9496 32.1656 48.1521 30.5355 48.5571C29.0511 48.9297 27.7446 49.6224 26.7941 50.8051C26.8831 45.5599 28.2502 40.3228 30.9521 35.6446C37.0719 25.0489 49.3802 18.4631 61.5954 21.0148C63.723 21.4603 65.7454 22.1449 67.6505 23.0359C67.8689 23.3762 68.0914 23.7164 68.3219 24.0485C69.5151 25.7578 70.7124 27.471 71.9056 29.1803C72.1402 29.5165 72.395 29.8405 72.5608 30.2131C72.7186 30.5615 72.8399 30.9219 72.9977 31.2703C73.2363 31.8009 73.5437 32.3315 74.1262 32.5299C75.2061 32.9026 76.5045 32.0034 77.3863 31.4849C77.5885 31.3675 77.7867 31.2541 77.989 31.1407C82.5838 36.7382 85.2817 43.9478 85.3464 51.3437C85.2898 58.124 83.0894 64.6491 79.2388 69.9672C79.2024 69.9956 79.166 70.028 79.1377 70.0604C79.0204 70.194 78.9233 70.356 78.8262 70.5181C78.1831 71.3646 77.4995 72.1787 76.7715 72.9564C76.367 71.8061 75.9949 70.6436 75.461 69.546C74.7208 68.0231 73.6206 66.7877 72.1119 65.9979C70.7852 65.3012 69.2603 64.9326 67.7678 65.1838C65.9962 65.4794 64.6128 66.7107 63.9171 68.339C63.181 70.0604 62.9545 72.0774 63.0111 73.9365C63.0596 75.5891 63.4115 77.2214 64.0142 78.7605C64.2852 79.4572 64.6088 80.1255 64.9647 80.7735C54.9013 84.3702 43.7943 81.3446 36.2549 74.0743L36.271 74.0783ZM66.3197 69.5703C66.6797 69.0316 67.0883 68.6509 67.5413 68.4443C68.0671 68.2013 68.7021 68.2296 69.2482 68.5172C70.227 69.0316 70.3686 69.8862 70.3686 69.8862C70.5263 70.8259 70.6274 72.1503 69.689 72.7822C69.3048 73.0414 68.8477 73.0941 68.5363 73.1103C67.966 73.1427 67.3269 73.0293 66.8051 72.7457C66.3602 72.5068 66.0043 72.1422 65.8546 71.636C65.62 70.8542 65.9759 70.0806 66.3157 69.5703H66.3197Z" fill="black"/>
<path d="M45.4608 41.9959C45.8208 42.9112 45.8815 43.9481 45.9057 44.9202C45.9219 45.5642 47.1839 46.3905 47.645 46.7226C47.8108 46.8441 49.0728 47.7271 49.0607 47.2249C48.9636 43.697 47.0868 40.9954 43.9723 39.3469C40.6839 37.6053 38.5847 40.157 37.2499 42.9639C36.8818 43.7335 40.2349 45.8315 40.3765 45.5359C41.052 44.1142 41.865 42.4414 43.3413 41.6961C43.7741 41.4774 44.2676 41.3519 44.753 41.36C45.5296 41.3681 45.2545 41.4774 45.4568 41.9959H45.4608Z" fill="black"/>
<path d="M60.7543 48.9666C61.5309 46.8725 62.445 44.6084 64.5321 43.5148C65.1792 43.1746 67.0965 42.648 67.5212 43.0652C68.3625 43.8834 67.8488 46.4635 67.6628 47.4396C67.5738 47.9175 68.5688 48.7843 68.86 49.0921C68.9733 49.2136 70.4213 50.4449 70.4334 50.3923C71.1736 46.4513 69.4505 43.2434 66.243 40.9347C62.2185 38.0428 59.2213 42.6642 57.9836 46.0139C57.6721 46.8523 60.823 48.7762 60.7543 48.9666Z" fill="black"/>
</svg>
