<svg width="90" height="80" viewBox="0 0 90 80" fill="none" xmlns="http://www.w3.org/2000/svg">
<path d="M86.312 60.9531C84.3665 57.0284 82.251 53.1846 80.1316 49.353C79.0759 47.4412 78.1173 45.6064 78.5137 43.3504C78.8898 41.2199 79.9698 39.3081 80.2408 37.1331C80.8151 32.5238 79.3024 27.9024 77.8706 23.5887C77.8382 23.4915 77.7815 23.3943 77.7047 23.3052C78.8939 22.5519 80.079 21.7944 81.2682 21.0411C83.3876 19.6923 86.7893 18.2828 86.8459 15.3342C86.8904 12.9728 85.5192 10.2834 84.1561 8.42022C82.7081 6.4396 80.9365 4.83973 78.7887 3.64488C77.6441 3.00897 76.4872 2.47837 75.1565 2.851C73.5911 3.28439 72.0946 4.72631 70.7719 5.64169C69.6596 6.41126 68.5473 7.18081 67.435 7.95038C66.0193 2.21105 59.5153 0.226388 54.1357 1.26327C48.0402 2.43787 41.9407 6.20468 38.1224 11.1056C35.9949 13.8396 33.6691 18.4732 34.0696 22.3453C32.4355 23.933 30.7448 25.5491 29.3331 27.3313C27.8932 29.1499 27.7718 31.6651 27.3431 33.8807C27.3188 34.0022 27.5777 34.1277 27.9983 34.2492C25.4825 35.8086 23.0071 37.4409 20.5883 39.1501C19.391 39.9967 18.2059 40.8553 17.0329 41.7383C16.6163 42.0502 16.0015 42.4066 15.4393 42.8117C15.3381 42.84 15.2411 42.8967 15.1602 42.9899C15.1319 43.0223 15.1036 43.0547 15.0753 43.0871C14.687 43.403 14.3634 43.7432 14.2056 44.1078C14.2056 44.1078 14.2056 44.1118 14.2056 44.1159C10.2336 48.8993 7.0423 54.2782 3.20784 59.171C2.32203 60.301 4.47385 64.2785 5.78437 64.4283C9.06064 64.8131 12.345 62.634 15.2209 61.3339C18.667 59.7785 22.1132 58.2232 25.5553 56.6679C25.6888 56.6071 25.7818 56.5018 25.8425 56.3641C27.3876 55.9712 28.8801 54.7278 30.2108 53.9379C31.3232 53.2777 32.4274 52.6135 33.5356 51.9533C34.7653 54.2053 36.1162 56.3844 37.8474 58.2961C38.9273 59.491 40.161 60.5035 41.5281 61.3541C42.3614 61.8726 43.2755 62.2492 43.9631 62.9702C44.6588 63.6993 45.1604 64.647 45.7105 65.4895C48.0483 69.07 50.3903 72.6546 52.7281 76.2351C53.5776 77.5352 54.2692 78.5883 55.7577 79.1837C57.5657 79.9087 59.6124 80.0829 61.4244 79.3093C65.36 77.6284 69.1581 75.4574 72.9885 73.5497C76.1919 71.9539 79.4359 70.358 82.34 68.2437C83.7395 67.2271 85.1552 66.0687 86.2473 64.7159C87.3353 63.3671 87.0401 62.4234 86.3039 60.9369L86.312 60.9531ZM13.2632 55.5702C12.883 55.7403 12.4866 55.9348 12.0821 56.1413C13.6798 53.8448 15.3058 51.5685 17.0774 49.4056C17.3363 49.6851 17.5628 49.9362 17.7286 50.1428C18.3758 50.9488 19.0149 51.8237 19.6903 52.6702C17.5466 53.6382 15.4029 54.6063 13.2632 55.5702ZM43.2229 11.6767C45.67 8.89411 49.2092 6.69072 52.8131 5.8118C56.6152 4.88832 61.3557 6.40315 61.9948 10.7613C62.0393 11.0691 62.1485 11.3162 62.2981 11.5106C59.7782 13.2563 57.2583 14.998 54.7384 16.7437C53.8405 16.8328 52.898 17.331 52.3075 17.7684C50.4671 19.1334 48.5782 20.4092 46.6124 21.5838C46.1432 21.8633 45.6053 22.2359 45.039 22.5843C44.4121 22.8313 43.7973 23.1189 43.2027 23.4348C42.4059 23.6454 41.6212 23.5806 40.9416 22.9366C37.7543 19.9151 40.9619 14.2487 43.227 11.6767H43.2229ZM79.2336 64.5296C77.3164 66.3522 75.0797 67.8225 72.7741 69.1065C70.1976 70.5443 67.524 71.804 64.8868 73.1163C63.37 73.8737 61.8492 74.6271 60.3324 75.3845C59.758 75.6721 59.0866 76.0812 58.3949 76.4659C57.9621 75.8057 57.5334 75.1455 57.1006 74.4853C56.2512 73.1811 55.3977 71.881 54.5483 70.5767C52.9102 68.0696 51.4176 64.9265 49.2618 62.8244C48.2344 61.824 46.9279 61.3136 45.763 60.5197C44.6143 59.738 43.6072 58.7376 42.7295 57.6683C40.9214 55.469 39.5947 52.9051 38.2842 50.3898C38.1346 50.1023 37.8029 49.8633 37.3701 49.6729C39.0527 48.6685 40.7394 47.664 42.422 46.6595C42.3088 47.3521 42.2238 48.0487 42.1793 48.7495C41.9852 51.771 43.049 53.9217 44.9015 56.2183C45.7064 57.2147 47.5225 57.7048 48.7359 57.8425C49.3791 57.9154 51.001 57.9478 50.1799 56.9271C48.2263 54.505 47.6681 52.3381 48.0888 49.2395C48.4771 46.4043 49.3346 43.6906 50.544 41.0984C51.1426 39.8144 46.5154 38.8545 45.8358 38.8342C44.5375 38.7897 43.2512 38.1781 42.236 37.2708C42.2279 37.2546 42.2238 37.2424 42.2117 37.2262C40.1367 34.1358 42.0984 30.3083 44.5819 28.0846C46.1028 26.7237 47.9149 25.8002 49.8523 25.4195C49.9453 25.4276 50.0343 25.4357 50.1233 25.4357C52.8171 25.4681 55.5191 26.3268 57.7963 27.7484C59.9238 29.077 61.6509 32.1755 64.5025 31.3857C65.9667 30.9806 67.2489 29.9437 68.515 29.1377C69.9711 28.2142 71.4232 27.2908 72.8793 26.3673C72.9359 26.3308 72.9885 26.2984 73.0451 26.262C73.6761 28.3601 74.1938 30.4946 74.3475 32.6858C74.5659 35.8005 73.664 38.2874 72.8146 41.2118C71.9854 44.0551 72.9157 46.3355 74.2828 48.8183C75.7754 51.528 77.2638 54.2377 78.6917 56.9838C79.3995 58.3407 80.2327 59.6935 80.8111 61.1111C81.4542 62.6948 80.3298 63.4887 79.2417 64.5255L79.2336 64.5296ZM43.7568 40.4746C43.8943 40.5192 44.0359 40.5597 44.1734 40.6042C44.1532 40.6569 44.133 40.7095 44.1087 40.7622C43.9793 40.6569 43.862 40.5597 43.7528 40.4746H43.7568Z" fill="black"/>
</svg>
