<svg width="90" height="80" viewBox="0 0 90 80" fill="none" xmlns="http://www.w3.org/2000/svg">
<g clip-path="url(#clip0_100_605)">
<path d="M84.8666 52.6326C81.9948 49.4409 79.0299 46.3424 76.0813 43.2237C74.3623 41.4051 73.2823 39.8335 73.4805 37.2373C73.6463 35.0622 73.8405 32.9885 73.4037 30.8256C72.5623 26.6578 70.2042 22.9234 67.9027 19.4117C68.8088 18.5085 69.7108 17.6053 70.6168 16.702C72.3116 15.005 75.5798 12.8097 75.0742 10.0311C74.6535 7.72649 72.4086 5.33274 70.6855 3.88676C68.7643 2.27473 66.4992 1.10824 64.0844 0.44803C62.7982 0.0956502 61.4715 -0.260781 60.1853 0.269814C58.624 0.913818 57.5157 2.5623 56.3953 3.77336C55.4124 4.83454 54.4296 5.89978 53.4507 6.96097C50.5385 1.90615 43.4115 1.65908 38.4769 3.664C32.5594 6.06585 27.0949 11.1409 24.4294 16.9734C22.856 20.4203 21.865 25.6573 23.6447 29.2054C22.5 30.9714 21.3311 32.7738 20.4412 34.6613C19.4462 36.7674 19.9558 39.2503 20.0853 41.4982C20.0893 41.5711 20.1581 41.64 20.2713 41.7129C18.3136 43.6449 16.4086 45.6255 14.5601 47.6628C13.5651 48.7605 12.5822 49.8784 11.6195 51.0044C10.9077 51.8387 9.59714 52.8837 9.32614 53.9571C9.28164 54.1312 9.26548 54.3013 9.26548 54.4755C6.56356 59.9435 4.71104 65.7922 2.13047 71.3168C1.49139 72.6858 3.31964 76.72 5.0144 76.5458C8.21788 76.2137 11.0088 73.2893 13.468 71.4505C16.5461 69.1499 19.6242 66.8453 22.7022 64.5447C24.3485 63.9736 25.7844 62.001 26.9007 60.952C27.9766 59.9394 29.0445 58.9228 30.1204 57.9102C32.1751 60.1379 34.3229 62.317 36.8873 63.9493C38.3232 64.8646 39.84 65.6139 41.466 66.1243C42.3559 66.4038 43.3468 66.5415 44.1679 67.0073C44.9971 67.473 45.7292 68.2993 46.4249 68.9271C49.6931 71.8758 52.9653 74.8204 56.2335 77.769C57.6573 79.053 59.0001 80.2802 61.0468 80.2397C63.2391 80.1952 64.7882 78.7127 66.39 77.4166C69.7229 74.7191 73.072 72.0378 76.3887 69.316C79.2605 66.9627 82.104 64.5447 84.3772 61.5798C85.3762 60.2756 86.6625 58.696 87.0467 57.0596C87.4916 55.1519 86.0193 53.9044 84.8706 52.6286L84.8666 52.6326ZM30.084 16.1998C31.9486 12.7327 35.1116 9.5775 38.6791 7.88041C42.279 6.17116 46.9427 6.89212 48.6212 10.8615C48.7507 11.1733 48.957 11.392 49.2118 11.5379C46.9831 13.9519 44.7504 16.3659 42.5217 18.7799C41.7006 19.0553 40.9281 19.6021 40.4508 20.157C38.8409 22.0242 37.1623 23.8306 35.3624 25.5196C35.1885 25.6816 35.0105 25.8599 34.8285 26.0462C33.8618 26.6497 32.9517 27.3382 32.1185 28.1281C31.5765 28.286 31.0062 28.2496 30.4116 27.881C26.65 25.548 28.4297 19.27 30.0799 16.1958L30.084 16.1998ZM10.7944 65.9947C10.1796 66.4524 9.54457 66.983 8.88527 67.5217C10.0583 64.5568 11.2595 61.6082 12.7157 58.7689C13.193 59.1131 13.6338 59.4169 13.9696 59.664C14.7785 60.2634 15.6279 60.9966 16.5097 61.7216C14.6046 63.1473 12.6995 64.569 10.7984 65.9947H10.7944ZM62.1268 75.7114C62.1268 75.7114 62.1187 75.6871 62.1025 75.6669C62.1308 75.6669 62.143 75.675 62.1268 75.7114ZM78.7468 60.6077C77.6709 61.8998 76.4696 63.0825 75.2238 64.2085C72.5907 66.5941 69.7633 68.7611 67.0048 70.9928C65.5568 72.1633 64.1087 73.3379 62.6647 74.5085C62.4099 74.7151 62.0095 74.954 61.6293 75.2173C61.2369 74.873 60.7435 74.4599 60.6423 74.3708C57.7705 71.7826 54.8947 69.1904 52.0229 66.6022C50.7083 65.4155 49.4262 64.0546 47.8163 63.2567C46.1863 62.4506 44.3338 62.2441 42.6956 61.4299C39.4436 59.8179 36.859 56.9867 34.4483 54.3419C34.3593 54.2446 34.2623 54.1636 34.1652 54.0826C35.5323 52.7906 36.9035 51.4985 38.2706 50.2024C38.3313 50.81 38.4082 51.4135 38.5133 52.017C39.0836 55.1924 40.8714 57.0596 43.3913 58.9187C44.4713 59.7166 46.1135 60.3161 47.4685 60.2594C48.5444 60.2148 48.8558 59.6721 47.8932 58.9633C45.6241 57.2905 44.54 55.5489 44.1356 52.7582C43.7068 49.7974 43.9091 46.792 44.4996 43.8717C44.8151 42.3123 40.2323 41.4577 39.2818 41.644C37.947 41.9033 36.5354 41.9802 35.2734 41.6238C35.2411 41.5914 35.2168 41.559 35.1804 41.5306C32.3774 39.0883 33.5665 34.7747 35.4716 32.1298C36.8994 30.1451 38.8895 28.5614 41.1667 27.719C43.5572 27.3099 46.073 27.4881 48.3866 28.1888C50.8863 28.9503 53.5438 31.5668 56.2335 30.4529C57.6735 29.8575 58.6968 28.6141 59.7768 27.5367C61.0145 26.3014 62.2522 25.0619 63.4858 23.8266C63.5505 23.7658 63.6112 23.701 63.6759 23.6403C65.0309 25.7789 66.2929 27.9984 67.0412 30.4124C67.5266 31.9718 67.8137 33.5839 67.7288 35.2202C67.6439 36.9213 67.2758 38.6387 67.5549 40.3479C68.1009 43.6773 71.1143 46.0468 73.3066 48.3514C74.6292 49.7407 75.9397 51.1461 77.2381 52.5597C77.861 53.2402 78.4839 53.9247 79.1027 54.6132C79.6043 55.1722 80.7611 56.0106 80.9917 56.7397C81.3152 57.7765 79.3535 59.8868 78.7508 60.6077H78.7468Z" fill="black"/>
</g>
<defs>
<clipPath id="clip0_100_605">
<rect width="90" height="80" fill="white"/>
</clipPath>
</defs>
</svg>
