<svg width="147" height="40" viewBox="0 0 147 40" fill="none" xmlns="http://www.w3.org/2000/svg">
<path d="M10.1808 25.2642C9.5038 24.4582 8.39879 24.4697 7.32443 25.1961C6.1724 25.975 5.84136 27.0476 6.38396 27.8501C6.98782 28.7433 8.18617 28.4234 9.04651 28.1058L10.1189 27.7391C11.5152 27.21 13.4501 26.8637 14.6095 28.5506C15.6643 30.1386 15.1963 32.1524 12.9829 33.649C10.886 35.0667 8.85679 34.9109 7.61096 33.2636L9.03481 32.3009C9.8168 33.2622 11.0425 33.1502 12.1428 32.4063C13.3336 31.6012 13.7895 30.4064 13.1811 29.4787C12.6168 28.6719 11.6256 28.8517 10.4538 29.2667L9.13937 29.7217C7.3578 30.3226 5.89653 30.1978 5.01262 28.8905C3.91866 27.2724 4.64202 25.2179 6.53185 23.9402C8.43463 22.6537 10.503 22.8396 11.5658 24.3278L10.1808 25.2642Z" fill="#999999"/>
<path d="M25.4243 26.375C23.2142 27.4751 21.0567 26.507 19.9217 24.227C18.7658 21.9051 19.3498 19.6072 21.49 18.5418C23.2244 17.6784 24.9916 18.0728 25.9114 19.5348L24.4567 20.259C23.9477 19.6222 23.0748 19.3062 22.1377 19.7728C20.9067 20.3855 20.5898 21.8175 21.3975 23.44C22.2261 25.1046 23.5457 25.7218 24.7906 25.1021C25.6299 24.6843 26.0435 23.9024 25.8145 22.9866L27.2693 22.2624C27.8325 23.8147 27.2147 25.4837 25.4243 26.375Z" fill="#999999"/>
<path d="M34.6893 22.1028L31.7995 14.1257L33.3127 13.5776L33.7704 14.841L33.8585 14.8091C33.8436 13.8506 34.4453 13.0343 35.3856 12.6937C35.5765 12.6245 35.8904 12.5274 36.0573 12.4836L36.6001 13.982C36.4573 14.0006 36.0687 14.0748 35.7455 14.1919C34.6584 14.5858 34.1218 15.6277 34.4997 16.6707L36.2613 21.5334L34.6893 22.1028Z" fill="#999999"/>
<path d="M48.4767 18.0486C46.1331 18.5941 44.2146 17.2438 43.6196 14.6871C43.021 12.1152 44.1462 10.0566 46.4898 9.51116C48.8182 8.96927 50.7367 10.3195 51.3352 12.8914C51.9303 15.4481 50.8051 17.5067 48.4767 18.0486ZM48.1615 16.6942C49.6529 16.3471 50.06 14.8567 49.6917 13.274C49.3233 11.6912 48.2929 10.5033 46.8015 10.8504C45.2796 11.2045 44.8796 12.7254 45.2479 14.3081C45.6163 15.8908 46.6397 17.0484 48.1615 16.6942Z" fill="#999999"/>
<path d="M59.7886 4.4369L61.1305 15.6695L59.4704 15.8679L58.1285 4.63523L59.7886 4.4369Z" fill="#999999"/>
<path d="M69.5519 3.73303L69.9657 15.038L68.2949 15.0991L67.8811 3.79418L69.5519 3.73303Z" fill="#999999"/>
<path d="M89.0546 16.3336C87.0324 16.0166 85.807 14.148 86.2304 11.4466C86.6587 8.71436 88.4053 7.35912 90.4275 7.6761C91.9866 7.92049 92.4101 8.95165 92.6211 9.52246L92.6983 9.53456L93.3492 5.38214L95.0009 5.64105L93.2491 16.8171L91.6437 16.5654L91.8493 15.2533L91.7258 15.234C91.33 15.7413 90.5828 16.5731 89.0546 16.3336ZM89.6453 14.9869C91.05 15.2071 92.026 14.1265 92.3018 12.3667C92.5753 10.6224 91.9825 9.35909 90.5623 9.13647C89.0959 8.9066 88.1768 10.0278 87.9179 11.6795C87.6541 13.3621 88.2097 14.7619 89.6453 14.9869Z" fill="#999999"/>
<path d="M103.847 19.6203C101.543 18.926 100.552 16.7997 101.309 14.2863C102.071 11.758 104.072 10.5332 106.376 11.2275C108.665 11.9172 109.656 14.0436 108.894 16.5719C108.137 19.0853 106.136 20.3101 103.847 19.6203ZM104.248 18.2888C105.714 18.7306 106.809 17.6409 107.278 16.085C107.747 14.5291 107.445 12.9858 105.979 12.544C104.483 12.0932 103.379 13.2128 102.91 14.7687C102.441 16.3246 102.752 17.838 104.248 18.2888Z" fill="#999999"/>
<path d="M116.109 23.8393L117.506 15.1099L119.058 15.8475L117.885 22.1752L117.97 22.2155L122.135 17.3095L123.687 18.0471L122.514 24.3399L122.598 24.3802L126.736 19.4957L128.288 20.2333L122.403 26.8303L120.865 26.0993L121.934 19.8436L121.821 19.7899L117.661 24.577L116.109 23.8393Z" fill="#999999"/>
<path d="M134.404 27.9954L131.586 32.1634L130.201 31.227L134.953 24.1984L136.286 25.0998L135.507 26.2518L135.585 26.3043C136.429 25.7811 137.448 25.7531 138.496 26.4619C139.946 27.4421 140.278 28.9871 139.097 30.7345L136.077 35.2002L134.705 34.2726L137.611 29.9751C138.302 28.9525 138.157 27.9679 137.225 27.3377C136.28 26.6989 135.165 26.8693 134.404 27.9954Z" fill="#999999"/>
</svg>
