<svg width="80" height="40" viewBox="0 0 80 40" fill="none" xmlns="http://www.w3.org/2000/svg">
<mask id="path-1-inside-1_72_1217" fill="white">
<path fill-rule="evenodd" clip-rule="evenodd" d="M20 0C20 11.0457 11.0457 20 0 20C11.0457 20 20 28.9543 20 40C20 28.9543 28.9543 20 40 20C28.9543 20 20 11.0457 20 0Z"/>
</mask>
<path d="M0 21C11.598 21 21 11.598 21 0H19C19 10.4934 10.4934 19 0 19V21ZM21 40C21 28.402 11.598 19 0 19V21C10.4934 21 19 29.5066 19 40H21ZM40 19C28.402 19 19 28.402 19 40H21C21 29.5066 29.5066 21 40 21V19ZM19 0C19 11.598 28.402 21 40 21V19C29.5066 19 21 10.4934 21 0H19Z" fill="#666666" mask="url(#path-1-inside-1_72_1217)"/>
<path fill-rule="evenodd" clip-rule="evenodd" d="M60 0C60 11.0457 51.0457 20 40 20C51.0457 20 60 28.9543 60 40C60 28.9543 68.9543 20 80 20C68.9543 20 60 11.0457 60 0Z" fill="#666666"/>
</svg>
